<?xml version="1.0" encoding="utf-8"?>
<!-- Generator: Adobe Illustrator 20.1.0, SVG Export Plug-In . SVG Version: 6.00 Build 0)  -->
<svg version="1.1" id="logo-image" xmlns="http://www.w3.org/2000/svg" xmlns:xlink="http://www.w3.org/1999/xlink" x="0px" y="0px"
	 viewBox="0 0 668.9 220.4" enable-background="new 0 0 668.9 220.4" xml:space="preserve">
<g>
	<path id="logo-image-letter" fill="#333333" d="M56.4,63.2c2.6,0,4.6,0,5.9,0.1c6.5,0,13.3,0,20.5-0.1c7.2-0.1,11.5-0.1,12.8-0.1c4.9,0,7.3,2,7.3,6.1
		c0.2,3.8-1.2,6-4.2,6.8C96.8,76,86.4,76,67.6,76h-5.9v13l-0.1,12.7v1.8h5.4c4.3,0,11.6-0.1,21.9-0.4c2.9,0,5,0.4,6.3,1.3
		c1.3,0.9,2,2.6,1.9,5.2c0,4.2-2.3,6.3-7,6.3c-2.1,0-7,0-14.6,0.1c-7.7,0-12.4,0.1-14.1,0.1c-0.1,1.8-0.1,4.7-0.1,8.6
		c0,1.8,0,4.6-0.1,8.5c0,3.9-0.1,6.8-0.1,8.6c3.6,0.1,13.9,0,30.8-0.1c3.6-0.2,5.8-0.3,6.6-0.3c4,0,5.9,2.2,5.9,6.6
		c0,4.7-2.5,7.1-7.6,7.2H60.4c-5.7,0-9.4-0.5-11.3-1.6s-2.9-3.4-3-7v-5c0-0.1,0-0.8,0.1-2.2c0-1.3,0.1-3.2,0.1-5.7
		c0-2.4,0.1-5.2,0.1-8.2s0.1-6.6,0.1-10.7c0-4.1,0.1-8.1,0.1-12.1c0-3.6,0-9,0.1-16.3c0-7.3,0.1-12.8,0.1-16.5
		C47,65.5,50.2,63.2,56.4,63.2z"/>
	<path fill="#333333" d="M120.5,94.4c1.3-1.2,3.1-1.8,5.5-1.8c3.2,0,5.1,1.6,5.7,4.9l0.5,7.4c1.9-4,4.5-7.2,7.9-9.4
		s6.9-3.4,10.5-3.4c4.8,0,7.2,2.3,7.2,7c0,2-0.5,3.6-1.6,5s-2.5,2-4.5,2h-2.3c-4.6,0-8.5,1.9-11.6,5.7c-3.2,3.8-4.7,9-4.7,15.6
		c0,1.4,0,4.6,0.1,9.7s0.1,9.1,0,12c-0.1,4.1-2.6,6.2-7.6,6.2c-2.4,0-4.3-0.6-5.5-1.8s-1.8-3.4-1.7-6.4c0.3-20.8,0.4-31.9,0.4-33.2
		c0-1.5,0-3.9-0.1-7.1c0-3.2-0.1-5.6-0.1-7.2C118.6,97.3,119.2,95.6,120.5,94.4z"/>
	<path fill="#333333" d="M168.5,73.5c-1.7-1.9-2.3-4.3-2-7.2c0.4-2.5,1.5-4.5,3.4-5.9c1.9-1.4,4-2.1,6.3-2.1c3,0,5.2,0.9,6.8,2.6
		c1.6,1.7,2.4,3.9,2.4,6.6c0,3-0.9,5.2-2.8,6.7c-1.9,1.5-4.4,2.2-7.4,2.2C172.4,76.4,170.1,75.5,168.5,73.5z M170.5,94.1
		c1.4-1.1,3-1.6,4.9-1.6c2.4,0,4.3,0.6,5.7,1.8s2,3.4,2,6.4v15.4v15.3v16.9c0.1,2.4-0.5,4.3-1.8,5.5c-1.3,1.2-3.2,1.8-5.7,1.8
		c-2.2,0-3.9-0.5-5.3-1.6c-1.3-1.1-2-2.7-2-4.7V99.3C168.4,96.9,169.1,95.2,170.5,94.1z"/>
	<path fill="#333333" d="M252.8,144.1c1.3,1.5,1.9,3,1.9,4.3c0,1.6-0.8,3.2-2.4,4.8s-3.4,2.4-5.3,2.4c-2.1,0-4.2-1.4-6.3-4.2
		l-18.4-22.3c-1.8,1.6-3.7,3.5-5.8,5.5l-0.1,13.2c0,5.1-2.4,7.7-7.2,7.7c-5,0-7.5-2.7-7.3-8l0.3-14.8c0-6.8,0-16.6-0.1-29.5
		c0-12.9-0.1-22.8-0.1-29.8c0-4.9,0-8.2-0.1-10.1c0-2.3,0.7-4,2.2-5.1c1.4-1.2,3.2-1.8,5.4-1.8c4.9,0,7.4,2.4,7.4,7.3
		c0,0.8-0.1,19.2-0.4,55.1l22.7-23.2c2.3-2.4,4.4-3.6,6.5-3.6c1.7,0,3.4,0.8,4.9,2.3c1.6,1.5,2.4,3.1,2.4,4.9c0,1.4-0.9,3.2-2.7,5.1
		c-0.9,1-6.9,6.7-18,17L252.8,144.1z"/>
	<path fill="#333333" d="M367.4,73.7c-0.1,2.2-0.7,3.9-1.8,5.3c-1.1,1.4-2.7,2-4.7,2c-1.6,0-3.6-0.6-5.9-1.8
		c-5-2.2-10.1-3.2-15.1-3.2c-7.5,0-14,3.2-19.7,9.7c-5.7,6.4-8.5,14.6-8.6,24.5c-0.1,8.9,2.7,16.4,8.4,22.5
		c5.7,6.1,12.5,9.2,20.5,9.2c5.8,0.1,11.2-1.4,16.5-4.5c0.4-0.2,0.8-0.5,1.4-0.8c0.6-0.4,1-0.6,1.3-0.7c0.3-0.1,0.8-0.3,1.3-0.4
		c0.6-0.1,1.2-0.2,1.8-0.2c1.8,0,3.2,0.8,4.3,2.4s1.6,3.4,1.6,5.4c-0.1,3.2-3.3,6.2-9.6,9s-13,4.1-20.2,4
		c-11.5-0.2-21.5-4.4-29.9-12.6c-8.4-8.2-12.6-19.1-12.5-32.7c0.1-7.3,1.4-14,4-20.2c2.6-6.2,6-11.3,10.2-15.3c4.2-4,9-7.1,14.2-9.4
		c5.2-2.3,10.6-3.4,16.1-3.4c7.6,0.2,14.1,1.4,19.7,3.8C365.1,68.2,367.4,70.7,367.4,73.7z"/>
	<path fill="#333333" d="M396.1,100.5c-0.2,10.6-0.3,18.8-0.3,24.4c0,12.1,4.1,18.1,12.4,18.1c5.8,0,10-2.1,12.4-6.2
		c2.4-4.1,3.7-10,3.8-17.7v-18.9c0-2.4,0.7-4.3,2.2-5.5c1.5-1.3,3.3-1.9,5.5-1.9c4.9,0,7.3,2.4,7.3,7.2c0,0.1,0,2-0.1,5.9
		c0,3.8-0.1,7.7-0.1,11.5v13.5c0.1,4.9,0.3,11.1,0.7,18.6c0.1,1.9-0.6,3.4-2,4.4c-1.4,1-3.1,1.6-5.2,1.6c-3.9,0-6.1-1.7-6.6-5.1
		c-0.2-0.8-0.3-2-0.4-3.6s-0.2-2.8-0.3-3.7c-4.4,8.6-11.1,13-20.1,13c-8.2,0-14.3-2.6-18.3-7.8s-6-12.2-6-21c0-2.5,0-7,0.1-13.4
		c0-6.4,0.1-10.8,0.1-13.2c0-5.1,2.7-7.7,8.2-7.7C393.9,92.9,396.1,95.4,396.1,100.5z"/>
	<path fill="#333333" d="M465.4,92.2c3.7,0,5.8,1.6,6.3,4.9l0.4,6.2c2-3.5,4.8-6.3,8.5-8.2c3.7-2,7.7-3,12.1-3
		c8.6,0,15.6,3,20.8,8.9c5.2,5.9,7.8,13.4,7.8,22.4c0,9.3-3,17-8.9,23.3c-5.9,6.3-13.4,9.4-22.4,9.4c-7.8,0-13.7-2.7-17.7-8.2
		c0,0.8,0,2.7,0.1,5.6c0,2.9,0.1,5.2,0.1,7c0,1.3,0,4,0.1,8s0.1,7.2,0.1,9.5c0,4.9-2.7,7.2-8.2,7.2c-4.4,0-6.6-2.3-6.6-7l0.1-53.1
		L458,99C458.1,94.5,460.5,92.2,465.4,92.2z M501.7,110.2c-3.2-3.4-7.1-5.1-11.6-5.1c-4.9,0-9,1.8-12.5,5.5s-5.2,8.3-5.2,13.8
		c0,5.9,1.5,10.6,4.5,13.8c3,3.3,7,4.9,12.1,4.9c4.9,0,9.1-1.9,12.5-5.6c3.4-3.7,5.1-8.5,5.1-14.4
		C506.6,117.9,505,113.6,501.7,110.2z"/>
	<path fill="#333333" d="M595.1,131.9c0,6.4,0.2,12.1,0.5,17.3c0,4.1-2.6,6.2-7.7,6.2c-2.1,0-3.6-0.8-4.5-2.4
		c-0.9-1.6-1.6-4.3-2.2-8c-4.1,7.2-10.8,10.8-19.8,10.8c-8.7,0-15.8-2.9-21.2-8.6c-5.4-5.8-8.1-12.9-8.1-21.3c0-9.7,2.9-17.7,8.8-24
		c5.9-6.3,13.3-9.4,22.2-9.4c8,0,14.1,3.1,18.4,9.4c0-0.2,0.1-0.9,0.3-2.3c0.2-1.3,0.4-2.3,0.5-2.7c1-2.8,3-4.2,5.9-4.2
		c4.7,0,7,2.7,7,8.2l-0.1,10.4L595.1,131.9z M551.9,138.1c3.1,3.3,7,5,11.5,5c5,0,9.2-1.8,12.6-5.3c3.4-3.5,5.1-8.1,5.1-13.8
		c0-5.9-1.7-10.5-5-13.8c-3.3-3.4-7.3-5.1-12-5.1c-4.9,0-8.9,1.9-12.1,5.7c-3.2,3.8-4.8,8.6-4.8,14.6
		C547.2,130.6,548.8,134.8,551.9,138.1z"/>
	<path fill="#333333" d="M616.1,59.2c1.4-1.2,3.3-1.8,5.5-1.8c5,0,7.6,2.8,7.6,8.4c-0.5,24.1-0.7,46.1-0.7,66c0,2.3,0.1,5.5,0.3,9.6
		s0.3,6.6,0.3,7.6c-0.1,2.2-0.7,3.8-1.7,4.9c-1,1.1-2.8,1.7-5.2,1.9c-2.6,0.2-4.6-0.5-6.1-2.2c-1.4-1.6-2.2-4.4-2.3-8.2
		c-0.3-7.1-0.3-34,0-80.7C613.9,62.2,614.6,60.4,616.1,59.2z"/>
</g>
</svg>
